<svg id="Capa_1" data-name="Capa 1" xmlns="http://www.w3.org/2000/svg" viewBox="0 0 595.28 397.07"><defs><style>@import url('https://fonts.googleapis.com/css?family=Open+Sans:400,500,600,700');.cls-1{opacity:0.4;}.cls-11,.cls-2{fill:none;}.cls-2{stroke:#999;}.cls-3{fill:#999;}.cls-4{fill:#187eb9;}.cls-4,.cls-8{stroke:#fff;stroke-width:2px;}.cls-5,.cls-6,.cls-7,.cls-9{isolation:isolate;}.cls-5,.cls-6{font-size:15px;}.cls-5{fill:#fff;font-family:OpenSans-Light, Open Sans;font-weight:300;}.cls-6,.cls-7{fill:#757575;}.cls-6,.cls-7,.cls-9{font-family:OpenSans-Regular, Open Sans;}.cls-10,.cls-7,.cls-9{font-size:16px;}.cls-8{fill:#efdc89;}.cls-9{fill:#040006;}.cls-10{fill:#211915;font-family:OpenSans-Bold, Open Sans;font-weight:700;}.cls-11{stroke:#080509;stroke-width:0.5px;}</style></defs><title>Sin título-3</title><g id="main-links"><g id="link-7-4"><g class="cls-1"><polyline class="cls-2" points="235.5 192.79 224.89 190.37 157.52 175.04"/><path class="cls-3" d="M241.38,194.12a30.24,30.24,0,0,1-7.28-6.53l.63,5L232,196.86A30.44,30.44,0,0,1,241.38,194.12Z"/></g></g><g id="link-7-5"><g class="cls-1"><polyline class="cls-2" points="327.79 159.84 333.72 151.51 375.16 97.31"/><path class="cls-3" d="M324.29,164.76a30.08,30.08,0,0,1,8.83-4.21l-4.87-1.36L325.37,155A30.05,30.05,0,0,1,324.29,164.76Z"/></g></g><g id="link-7-6"><g class="cls-1"><polyline class="cls-2" points="310.6 261.45 312.64 267.67 333.02 329.64"/><path class="cls-3" d="M308.71,255.72a30.25,30.25,0,0,1-1.84,9.6l4-3.12,5,.15A30.24,30.24,0,0,1,308.71,255.72Z"/></g></g></g><g id="main-nodes"><g id="node-7"><circle class="cls-4" cx="292.27" cy="205.7" r="50.01"/><text class="cls-5" transform="translate(251.58 211.75)">DIFUSORES</text></g><g id="node-1"><text class="cls-6" transform="translate(5.97 391.67)">Fuente: Elaboración propia</text><text class="cls-6" transform="translate(475.7 391.67)">LA VANGUARDIA</text></g><g id="node-3"><text class="cls-7" transform="translate(16.2 164.76)">Grupos <tspan x="0" y="19.2">idelógicos que </tspan><tspan x="0" y="38.4">se convierten en </tspan><tspan x="0" y="57.6">altavoz de estos discursos </tspan></text></g><g id="node-4"><circle class="cls-8" cx="157.52" cy="175.04" r="20.96"/><text class="cls-9" transform="translate(16.2 144.99)">EXTREMA DERECHA</text></g><g id="node-5"><circle class="cls-8" cx="375.16" cy="97.31" r="20.96"/><text class="cls-9" transform="translate(399.12 71.56)">LOBBY DE LAS TERAPIAS <tspan x="0" y="19.2">ALTERNATIVAS</tspan></text><text class="cls-7" transform="translate(362.7 336.89)">Iniciativas personalistas<tspan x="0" y="19.2">de algunos comunicadores</tspan></text><text class="cls-7" transform="translate(400.67 110.21)">Conglomerado de <tspan x="0" y="19.2">agentes con intereses </tspan><tspan x="0" y="38.4">económicos</tspan></text></g><g id="node-6"><circle class="cls-8" cx="333.02" cy="329.64" r="20.96"/><text class="cls-9" transform="translate(362.7 315.35)">COMUNICADORES</text></g></g><text class="cls-10" transform="translate(11.08 20.4)">¿Quién hay detrás de los canales y grupos negacionistas <tspan x="0" y="19.2">o conspiracionistas de la Covid-19 en Telegram?</tspan></text><line class="cls-11" y1="376.06" x2="595.28" y2="376.06"/></svg>