<svg id="Capa_1" data-name="Capa 1" xmlns="http://www.w3.org/2000/svg" viewBox="0 0 595.28 397.07"><defs><style>@import url('https://fonts.googleapis.com/css?family=Open+Sans:400,500,600,700');.cls-1{opacity:0.4;}.cls-11,.cls-2{fill:none;}.cls-2{stroke:#999;}.cls-3{fill:#999;}.cls-4{fill:#187eb9;}.cls-4,.cls-6{stroke:#fff;stroke-width:2px;}.cls-5,.cls-7,.cls-8,.cls-9{isolation:isolate;}.cls-5,.cls-8{font-size:15px;}.cls-5{fill:#fff;font-family:OpenSans-Light, Open Sans;font-weight:300;}.cls-6{fill:#acd2e3;}.cls-10,.cls-7,.cls-9{font-size:16px;}.cls-7{fill:#040006;}.cls-7,.cls-8,.cls-9{font-family:OpenSans-Regular, Open Sans;}.cls-8,.cls-9{fill:#757575;}.cls-10{fill:#211915;font-family:OpenSans-Bold, Open Sans;font-weight:700;}.cls-11{stroke:#080509;stroke-width:0.5px;}</style></defs><title>Sin título-3</title><g id="main-links"><g id="link-7-1"><g class="cls-1"><polyline class="cls-2" points="255.95 237.44 240.45 250.99 188.64 296.27"/><path class="cls-3" d="M260.5,233.47a30.27,30.27,0,0,1-9.57,2l4.43,2.45,1.83,4.71A30,30,0,0,1,260.5,233.47Z"/></g></g><g id="link-7-2"><g class="cls-1"><polyline class="cls-2" points="274.59 159.37 268.63 143.75 244.99 81.79"/><path class="cls-3" d="M276.74,165a30.17,30.17,0,0,1,1.4-9.68l-3.83,3.3-5.06.09A30,30,0,0,1,276.74,165Z"/></g></g><g id="link-7-3"><g class="cls-1"><polyline class="cls-2" points="339.69 212.62 359.93 215.57 427.59 225.44"/><path class="cls-3" d="M333.72,211.75a30.35,30.35,0,0,1,7.77,5.94l-1-5,2.39-4.45A30.16,30.16,0,0,1,333.72,211.75Z"/></g></g><g id="link-7-4"><g class="cls-1"><polyline class="cls-2" points="243.74 194.66 224.89 190.37 157.52 175.04"/><path class="cls-3" d="M249.62,196a30.45,30.45,0,0,1-7.28-6.53l.62,5-2.73,4.26A30.36,30.36,0,0,1,249.62,196Z"/></g></g><g id="link-7-5"><g class="cls-1"><polyline class="cls-2" points="323 165.52 333.72 151.51 375.16 97.31"/><path class="cls-3" d="M319.33,170.31a30.5,30.5,0,0,1,9-3.9l-4.82-1.52-2.73-4.25A30.27,30.27,0,0,1,319.33,170.31Z"/></g></g><g id="link-7-6"><g class="cls-1"><polyline class="cls-2" points="307.53 252.13 312.64 267.67 333.02 329.64"/><path class="cls-3" d="M305.65,246.4a30.31,30.31,0,0,1-1.85,9.6l4-3.12,5.06.15A30.06,30.06,0,0,1,305.65,246.4Z"/></g></g></g><g id="main-nodes"><g id="node-7"><circle class="cls-4" cx="292.27" cy="205.7" r="40.69"/><text class="cls-5" transform="translate(263.94 211.75)">MEDIOS</text></g><g id="node-1"><circle class="cls-6" cx="188.64" cy="296.27" r="20.96"/><text class="cls-7" transform="translate(16.2 308.68)">ULTRA RELIGIOSOS</text><text class="cls-8" transform="translate(5.97 391.67)">Fuente: Elaboración propia</text><text class="cls-8" transform="translate(475.7 391.67)">LA VANGUARDIA</text></g><g id="node-2"><circle class="cls-6" cx="244.99" cy="81.79" r="20.96"/><text class="cls-7" transform="translate(454.25 218.59)">DERECHA</text><text class="cls-9" transform="translate(454.25 239.06)">Medios nuevos <tspan x="0" y="19.2">de derechas</tspan></text></g><g id="node-3"><circle class="cls-6" cx="427.59" cy="225.44" r="20.96"/><text class="cls-7" transform="translate(16.2 70.81)">NEGACIONISTAS</text><text class="cls-9" transform="translate(16.2 90.13)">Fundados con el objetivo <tspan x="0" y="19.2">de desmentir la pandemia</tspan></text><text class="cls-9" transform="translate(16.2 194.12)">Vinculado al <tspan x="0" y="19.2">grupo religioso Falun Gong</tspan></text></g><g id="node-4"><circle class="cls-6" cx="157.52" cy="175.04" r="20.96"/><text class="cls-7" transform="translate(16.2 173.72)">TIERRA PURA</text></g><g id="node-5"><circle class="cls-6" cx="375.16" cy="97.31" r="20.96"/><text class="cls-7" transform="translate(399.12 71.56)">TRUMPISTAS</text><text class="cls-9" transform="translate(400.67 90.88)">Derecha estadounidense<tspan x="0" y="19.2">y partidarios de la teoría</tspan><tspan x="0" y="38.4">de Q-Anon</tspan></text><text class="cls-9" transform="translate(362.7 336.89)">Financiados o cercanos al<tspan x="0" y="19.2">gobierno ruso</tspan></text></g><g id="node-6"><circle class="cls-6" cx="333.02" cy="329.64" r="20.96"/><text class="cls-7" transform="translate(362.7 315.35)">PRORRUSOS</text></g></g><text class="cls-10" transform="translate(11.08 20.4)">¿De qué medios de comunicación proviene la información <tspan x="0" y="19.2">que circula en los canales negacionistas?</tspan></text><line class="cls-11" y1="376.06" x2="595.28" y2="376.06"/></svg>