<svg id="Capa_1" data-name="Capa 1" xmlns="http://www.w3.org/2000/svg" viewBox="0 0 595.28 397.07"><defs><style>@import url('https://fonts.googleapis.com/css?family=Open+Sans:400,500,600,700');.cls-1{opacity:0.4;}.cls-12,.cls-2{fill:none;}.cls-2{stroke:#999;}.cls-3{fill:#999;}.cls-4{fill:#187eb9;}.cls-4,.cls-6{stroke:#fff;stroke-width:2px;}.cls-10,.cls-5,.cls-7,.cls-8{isolation:isolate;}.cls-5,.cls-8{font-size:15px;}.cls-5{fill:#fff;font-family:OpenSans-Light, Open Sans;font-weight:300;}.cls-6{fill:#acd2e3;}.cls-10,.cls-11,.cls-7{font-size:16px;}.cls-7{fill:#040006;}.cls-10,.cls-7,.cls-8{font-family:OpenSans-Regular, Open Sans;}.cls-10,.cls-8{fill:#757575;}.cls-9{letter-spacing:-0.02em;}.cls-11{fill:#211915;font-family:OpenSans-Bold, Open Sans;font-weight:700;}.cls-12{stroke:#080509;stroke-width:0.5px;}</style></defs><title>2021.05_Telegram1</title><g id="main-links"><g id="link-7-1"><g class="cls-1"><polyline class="cls-2" points="241.67 237.44 226.17 250.99 174.35 296.27"/><path class="cls-3" d="M246.21,233.47a30.21,30.21,0,0,1-9.56,2l4.42,2.45,1.84,4.71A30.26,30.26,0,0,1,246.21,233.47Z"/></g></g><g id="link-7-2"><g class="cls-1"><polyline class="cls-2" points="260.31 159.37 254.34 143.75 230.7 81.79"/><path class="cls-3" d="M262.46,165a30.17,30.17,0,0,1,1.39-9.68l-3.83,3.3-5,.09A30.15,30.15,0,0,1,262.46,165Z"/></g></g><g id="link-7-3"><g class="cls-1"><polyline class="cls-2" points="325.4 212.62 345.65 215.57 413.31 225.44"/><path class="cls-3" d="M319.43,211.75a30.23,30.23,0,0,1,7.78,5.94l-1-5,2.39-4.45A30.12,30.12,0,0,1,319.43,211.75Z"/></g></g><g id="link-7-4"><g class="cls-1"><polyline class="cls-2" points="229.45 194.66 210.61 190.37 143.23 175.04"/><path class="cls-3" d="M235.34,196a30.07,30.07,0,0,1-7.28-6.53l.62,5L226,198.74A30.28,30.28,0,0,1,235.34,196Z"/></g></g><g id="link-7-5"><g class="cls-1"><polyline class="cls-2" points="308.72 165.52 319.43 151.51 360.88 97.31"/><path class="cls-3" d="M305.05,170.31a30.39,30.39,0,0,1,9-3.9l-4.82-1.52-2.73-4.25A30.27,30.27,0,0,1,305.05,170.31Z"/></g></g><g id="link-7-6"><g class="cls-1"><polyline class="cls-2" points="293.25 252.13 298.36 267.67 318.74 329.64"/><path class="cls-3" d="M291.37,246.4a30.59,30.59,0,0,1-1.85,9.6l4-3.12,5.05.15A30,30,0,0,1,291.37,246.4Z"/></g></g></g><g id="main-nodes"><g id="node-7"><circle class="cls-4" cx="277.99" cy="205.7" r="40.69"/><text class="cls-5" transform="translate(249.66 211.75)">MEDIOS</text></g><g id="node-1"><circle class="cls-6" cx="174.35" cy="296.27" r="20.96"/><text class="cls-7" transform="translate(1.92 308.68)">ULTRA RELIGIOSOS</text><text class="cls-8" transform="translate(5.97 391.67)">Fuente: Elaboración propia</text><text class="cls-8" transform="translate(475.7 391.67)">LA VANGUARDIA</text></g><g id="node-2"><circle class="cls-6" cx="230.7" cy="81.79" r="20.96"/><text class="cls-7" transform="translate(434.27 209.27)">MEDIOS NUEVOS<tspan class="cls-9"><tspan x="0" y="19.2">AUTODENOMINADOS</tspan></tspan><tspan x="0" y="38.4">DE DERECHAS</tspan></text></g><g id="node-3"><circle class="cls-6" cx="413.31" cy="225.44" r="20.96"/><text class="cls-7" transform="translate(1.92 70.81)">NEGACIONISTAS</text><text class="cls-10" transform="translate(1.92 90.13)">Fundados con el objetivo <tspan x="0" y="19.2">de desmentir la pandemia</tspan></text><text class="cls-10" transform="translate(1.92 194.12)">Vinculado al <tspan x="0" y="19.2">grupo religioso Falun Gong</tspan></text></g><g id="node-4"><circle class="cls-6" cx="143.23" cy="175.04" r="20.96"/><text class="cls-7" transform="translate(1.92 173.72)">TIERRA PURA</text></g><g id="node-5"><circle class="cls-6" cx="360.88" cy="97.31" r="20.96"/><text class="cls-7" transform="translate(384.84 71.56)">TRUMPISTAS</text><text class="cls-10" transform="translate(386.39 90.88)">Derecha estadounidense<tspan x="0" y="19.2">y partidarios de la teoría</tspan><tspan x="0" y="38.4">de Q-Anon</tspan></text><text class="cls-10" transform="translate(348.41 336.89)">Financiados o cercanos al<tspan x="0" y="19.2">gobierno ruso</tspan></text></g><g id="node-6"><circle class="cls-6" cx="318.74" cy="329.64" r="20.96"/><text class="cls-7" transform="translate(348.41 315.35)">PRORRUSOS</text></g></g><text class="cls-11" transform="translate(11.08 20.4)">¿De qué medios de comunicación proviene la información <tspan x="0" y="19.2">que circula en los canales negacionistas?</tspan></text><line class="cls-12" y1="376.06" x2="595.28" y2="376.06"/></svg>